PathFileType	4	(X/Y/Z)	./resultDataOpenSim/trcMotMarkerGrf/sub06/qtm-01-06.trc
DataRate	CameraRate	NumFrames	NumMarkers	Units	OrigDataRate	OrigDataStartFrame	OrigNumFrames
250.000000	250.000000	11	24	m	250.000000	439	501
Frame#	Time	L.Toe.Tip			R.Toe.Tip			L.Ankle.Lat			R.Ankle.Lat			L.Ankle.Med			R.Ankle.Med			L.Heel			R.Heel			L.Knee.Lat			R.Knee.Lat			L.Knee.Med			R.Knee.Med			L.Thigh.Upper			R.Thigh.Upper			L.ASIS			R.ASIS			V.Sacral			L.Acromium			R.Acromium			C7			L.Elbow			R.Elbow			L.Wrist.Lat			R.Wrist.Lat
		X1	Y1	Z1	X2	Y2	Z2	X3	Y3	Z3	X4	Y4	Z4	X5	Y5	Z5	X6	Y6	Z6	X7	Y7	Z7	X8	Y8	Z8	X9	Y9	Z9	X10	Y10	Z10	X11	Y11	Z11	X12	Y12	Z12	X13	Y13	Z13	X14	Y14	Z14	X15	Y15	Z15	X16	Y16	Z16	X17	Y17	Z17	X18	Y18	Z18	X19	Y19	Z19	X20	Y20	Z20	X21	Y21	Z21	X22	Y22	Z22	X23	Y23	Z23	X24	Y24	Z24

439	1.752	1.6569339	0.033515521	-0.018977826	1.0734043	0.079038794	0.11160586	1.5344984	0.066664916	-0.053886469	1.077203	0.21957614	0.14348068	1.5280025	0.080262539	0.032413917	1.1197941	0.20763813	0.064910282	1.4557893	0.039259695	-0.016910284	1.0582231	0.26493241	0.077716324	1.592579	0.43816723	-0.066057244	1.4153559	0.39728683	0.19395336	1.5563516	0.43430119	0.049279676	1.4203404	0.37829581	0.060814871	1.4667784	0.81430502	-0.14398872	1.3984363	0.76019792	0.19025765	1.5225032	0.8525105	-0.085848631	1.4898504	0.82546717	0.15715414	1.3156971	0.90943494	0.024011927	1.4178469	1.3097719	-0.16911319	1.4134041	1.3144841	0.19475883	1.3350211	1.3502144	0.010059255	1.3308342	1.0078181	-0.21234264	1.398134	0.99354444	0.2752401	1.4194835	0.7819237	-0.24236545	1.6205103	0.88391362	0.26460386
440	1.756	1.6568611	0.033508628	-0.019037627	1.0891401	0.080327537	0.1131085	1.5344105	0.066678223	-0.054058009	1.0901241	0.22111662	0.14386412	1.528085	0.080389536	0.032333002	1.13302	0.20929539	0.065554307	1.4557334	0.039383892	-0.017058378	1.0705035	0.26555752	0.077722566	1.5943174	0.43770518	-0.066241098	1.4274774	0.39912209	0.19501104	1.5580161	0.43415916	0.049127614	1.4325131	0.38040611	0.061692129	1.4724073	0.81531915	-0.14408114	1.405438	0.76190617	0.1900594	1.5283275	0.8535626	-0.085970027	1.4956992	0.82727544	0.15737089	1.3216958	0.9110113	0.02371508	1.424379	1.3114082	-0.16894363	1.41901	1.3161735	0.19495729	1.3411235	1.35169	0.009976374	1.3391079	1.0087034	-0.21246814	1.401084	0.99517251	0.27452112	1.4301608	0.78369174	-0.24187044	1.6228609	0.88243086	0.26486992
441	1.76	1.6568151	0.033506921	-0.019073955	1.1051559	0.081436548	0.11456901	1.5343736	0.066653334	-0.054062947	1.1032098	0.22234694	0.1443265	1.5284185	0.080571078	0.032255644	1.1463626	0.21078051	0.066177025	1.4556938	0.039521837	-0.017257019	1.0827416	0.2659207	0.07782898	1.5959806	0.43728971	-0.066342025	1.4395607	0.40114787	0.19602561	1.5595612	0.43406459	0.049042684	1.4445596	0.3826138	0.062318957	1.4780092	0.81628895	-0.14420668	1.4124402	0.76367144	0.18989117	1.5340949	0.85461427	-0.086112741	1.5014179	0.82913254	0.15754043	1.327659	0.91263714	0.023432504	1.4308646	1.3131108	-0.16875145	1.4245813	1.3179025	0.19515401	1.3471951	1.3531913	0.0099073433	1.3473994	1.0096562	-0.21257421	1.4046648	0.99685277	0.27380828	1.4408986	0.785564	-0.24133748	1.6251053	0.88101731	0.26515865
442	1.764	1.6567984	0.033504837	-0.019090014	1.1213736	0.082333121	0.11614369	1.5343802	0.066606165	-0.053974248	1.116307	0.22324861	0.14482526	1.5290042	0.080819935	0.032171742	1.1598211	0.21205704	0.066808421	1.4556712	0.039654719	-0.017425015	1.0949946	0.26602528	0.078053837	1.5976031	0.43692875	-0.066359219	1.4516008	0.40336342	0.19699363	1.561011	0.43401658	0.049015316	1.4566079	0.38486657	0.062895801	1.4836688	0.81720698	-0.14437405	1.4194386	0.76548764	0.1897557	1.5397879	0.85566594	-0.086273402	1.5071971	0.83101219	0.15769888	1.3335996	0.91428696	0.02317338	1.4373119	1.3148718	-0.16853838	1.4301438	1.3196588	0.19534669	1.3532547	1.3547219	0.0098627522	1.355708	1.0106692	-0.2126415	1.4089526	0.99856036	0.27311296	1.451691	0.78752977	-0.24076708	1.6272456	0.87966916	0.26547434
443	1.768	1.6568009	0.033497091	-0.019093648	1.1377743	0.083028374	0.11782049	1.5344055	0.06657678	-0.05390823	1.1293174	0.22380946	0.14531655	1.5296184	0.081111374	0.032086348	1.173394	0.2130865	0.067449208	1.4556622	0.039780678	-0.017511681	1.1073646	0.26588486	0.078373102	1.5992087	0.4366279	-0.066300304	1.4635808	0.40574745	0.19790915	1.5623788	0.43400631	0.04903674	1.4688062	0.38712466	0.063540216	1.489353	0.81806468	-0.14456431	1.426429	0.76734869	0.18965574	1.5454013	0.85671734	-0.086453976	1.5132483	0.83288714	0.15789054	1.3395119	0.91591895	0.022952206	1.4437295	1.3166867	-0.16830762	1.4357125	1.3214273	0.19554652	1.3593147	1.3562761	0.0098590323	1.3640227	1.0117291	-0.21266664	1.4135574	1.0003028	0.27246523	1.4625387	0.78958129	-0.24016487	1.6292827	0.87838254	0.26581856
444	1.772	1.6568088	0.033482333	-0.019091192	1.1543695	0.08354964	0.11951886	1.5344296	0.066578892	-0.053904597	1.1423715	0.22406813	0.14579722	1.5299728	0.081375848	0.032019628	1.1870871	0.21384792	0.068085981	1.4556611	0.039909151	-0.01755749	1.1199094	0.26550203	0.078751269	1.6008007	0.43638513	-0.066181656	1.4754738	0.40826795	0.19876832	1.5636566	0.43402382	0.049093122	1.4811662	0.38938259	0.064262586	1.4948242	0.81886145	-0.14471451	1.4334071	0.76924851	0.18959405	1.5509607	0.85776539	-0.086663836	1.5195977	0.83475333	0.15811538	1.3453946	0.91751794	0.022776613	1.4501222	1.3185526	-0.16806643	1.4412869	1.3231957	0.1957646	1.3653825	1.3578402	0.0099023298	1.3723372	1.0128239	-0.21265949	1.4180017	1.002096	0.27189146	1.4734431	0.79171444	-0.23953629	1.631223	0.87715637	0.26618579
445	1.776	1.6568132	0.033463573	-0.019084777	1.1711569	0.083919587	0.121184	1.5344426	0.066602344	-0.05393267	1.1557411	0.22409636	0.146307	1.5299532	0.081544722	0.031989005	1.2009084	0.21434681	0.068712164	1.4556591	0.04004386	-0.01763676	1.1326319	0.26484522	0.079147054	1.6023628	0.43618941	-0.066019251	1.4872595	0.41090276	0.19956915	1.5647834	0.43405448	0.049161372	1.4935623	0.39165775	0.065026852	1.4998674	0.81960575	-0.14477065	1.4403687	0.771181	0.18957337	1.5565323	0.85880551	-0.086915536	1.5260393	0.83662833	0.15832036	1.3512669	0.91909935	0.02263932	1.4564874	1.3204602	-0.16781707	1.4468569	1.324958	0.19599861	1.3714562	1.3594033	0.0099846787	1.3806571	1.0139473	-0.21263169	1.4219869	1.0039409	0.27141493	1.4843886	0.79392491	-0.2388781	1.6330753	0.87598913	0.26657068
446	1.78	1.6568133	0.033446229	-0.019073734	1.1881085	0.084150048	0.12281205	1.534442	0.066642263	-0.053962099	1.1695245	0.22393038	0.14687192	1.5296909	0.08161378	0.031990729	1.214847	0.21459957	0.069329724	1.4556456	0.040178926	-0.017779935	1.1455022	0.26387865	0.079525959	1.6038709	0.43602671	-0.06582478	1.4989394	0.41364492	0.20030831	1.5656489	0.4340738	0.04921741	1.5058551	0.39396497	0.06578715	1.5046041	0.82030568	-0.14475904	1.4473093	0.77314006	0.18959641	1.5621637	0.85983822	-0.08720844	1.5323422	0.83852628	0.15845145	1.3571384	0.92067913	0.022527087	1.4628189	1.3223895	-0.16754892	1.4524152	1.3267122	0.19623357	1.3775269	1.360961	0.010096861	1.3889844	1.015097	-0.21259694	1.4255192	1.005821	0.27104114	1.495351	0.79620421	-0.23818296	1.6348432	0.87487801	0.26697764
447	1.784	1.6568159	0.033435512	-0.019056341	1.2051959	0.084244278	0.12443076	1.5344292	0.066708506	-0.054002254	1.1835318	0.22355678	0.14745943	1.5294892	0.081660109	0.031996392	1.228881	0.2146203	0.069952141	1.4556204	0.04031343	-0.017940907	1.1584778	0.26260677	0.079879883	1.6053102	0.43588715	-0.065607972	1.5105255	0.41648547	0.20097929	1.5661878	0.43406271	0.049253736	1.5180176	0.39629686	0.066492308	1.5093493	0.82096633	-0.14474921	1.4542251	0.77511958	0.18966583	1.5678077	0.86087414	-0.087517351	1.5385224	0.84043909	0.15851578	1.3629923	0.92224807	0.022437819	1.4691151	1.3243209	-0.1672518	1.457974	1.3284557	0.19645544	1.3835907	1.3625108	0.010233153	1.3973093	1.0162693	-0.21257454	1.4288388	1.0077168	0.27073898	1.5063381	0.79854001	-0.23745349	1.6365229	0.87382365	0.26741676
448	1.788	1.6568305	0.033433569	-0.019031132	1.2224105	0.084203109	0.12606958	1.5344065	0.066817285	-0.05409412	1.1975285	0.22295713	0.1480135	1.5295896	0.081784974	0.031976204	1.2430115	0.21441941	0.070606833	1.4556027	0.040462148	-0.018013937	1.1715287	0.26105975	0.080221381	1.6066843	0.43576739	-0.065378709	1.5220225	0.41940288	0.20157653	1.5665512	0.4340424	0.049295894	1.5300921	0.39864928	0.067119822	1.5142345	0.82159845	-0.14476184	1.4611118	0.77711349	0.18978431	1.5733623	0.86192725	-0.08780728	1.5448868	0.84234161	0.15858763	1.3688433	0.9237766	0.022371114	1.4753805	1.3262468	-0.16693126	1.4635737	1.3301826	0.19666646	1.3896518	1.3640506	0.010388668	1.4056215	1.0174594	-0.21257765	1.4322136	1.0096237	0.27046441	1.517386	0.80092342	-0.23669908	1.6381121	0.8728292	0.26788984
449	1.792	1.6568632	0.033438538	-0.018998386	1.2397656	0.084033881	0.12773873	1.5343849	0.066977307	-0.054253293	1.2115249	0.22214061	0.14851639	1.5299351	0.082027157	0.031931406	1.257285	0.21399888	0.071351894	1.4556138	0.040642909	-0.017939833	1.1846541	0.25925174	0.080555373	1.607999	0.43566458	-0.06515184	1.5334681	0.42237284	0.20211235	1.567103	0.43407233	0.049392566	1.5420641	0.40106388	0.067700696	1.5191864	0.82221408	-0.14476912	1.467965	0.77911583	0.18995472	1.5787957	0.86300494	-0.088065475	1.5517894	0.84421246	0.15874934	1.3747771	0.92525578	0.022302635	1.4816197	1.3281648	-0.16659944	1.4692694	1.3318875	0.19688841	1.3957152	1.3655768	0.010562918	1.4139233	1.0186631	-0.21260056	1.4357685	1.0115527	0.27019273	1.5284992	0.80335683	-0.2359178	1.6396287	0.8718935	0.26838289
